<svg width="22" height="25" viewBox="0 0 22 25" fill="none" xmlns="http://www.w3.org/2000/svg">
<path d="M12.7963 22.7002C12.3145 23.1482 11.6705 23.3986 11.0002 23.3986C10.33 23.3986 9.68598 23.1482 9.20415 22.7002C4.79186 18.5731 -1.12116 13.9626 1.76244 7.269C3.32158 3.64984 7.06421 1.33398 11.0002 1.33398C14.9362 1.33398 18.6789 3.64984 20.238 7.269C23.118 13.9542 17.2195 18.5873 12.7963 22.7002Z" stroke="white" stroke-width="2"/>
<path d="M14.8864 11.2632C14.8864 13.3957 13.1454 15.1245 10.9979 15.1245C8.85031 15.1245 7.10938 13.3957 7.10938 11.2632C7.10938 9.13062 8.85031 7.40186 10.9979 7.40186C13.1454 7.40186 14.8864 9.13062 14.8864 11.2632Z" stroke="white" stroke-width="2"/>
</svg>
