<svg width="60" height="60" viewBox="0 0 60 60" fill="none" xmlns="http://www.w3.org/2000/svg">
<path d="M22.5 0H12.5C9.18479 0 6.00537 1.31696 3.66117 3.66117C1.31696 6.00537 0 9.18479 0 12.5L0 47.5C0 49.1415 0.323322 50.767 0.951506 52.2835C1.57969 53.8001 2.50043 55.1781 3.66117 56.3388C6.00537 58.683 9.18479 60 12.5 60H35V12.5C35 10.8585 34.6767 9.23303 34.0485 7.71646C33.4203 6.19989 32.4996 4.8219 31.3388 3.66117C30.1781 2.50043 28.8001 1.57969 27.2835 0.951506C25.767 0.323322 24.1415 0 22.5 0ZM12.5 47.5H10C9.33696 47.5 8.70107 47.2366 8.23223 46.7678C7.76339 46.2989 7.5 45.663 7.5 45C7.5 44.337 7.76339 43.7011 8.23223 43.2322C8.70107 42.7634 9.33696 42.5 10 42.5H12.5C13.163 42.5 13.7989 42.7634 14.2678 43.2322C14.7366 43.7011 15 44.337 15 45C15 45.663 14.7366 46.2989 14.2678 46.7678C13.7989 47.2366 13.163 47.5 12.5 47.5ZM12.5 37.5H10C9.33696 37.5 8.70107 37.2366 8.23223 36.7678C7.76339 36.2989 7.5 35.663 7.5 35C7.5 34.337 7.76339 33.7011 8.23223 33.2322C8.70107 32.7634 9.33696 32.5 10 32.5H12.5C13.163 32.5 13.7989 32.7634 14.2678 33.2322C14.7366 33.7011 15 34.337 15 35C15 35.663 14.7366 36.2989 14.2678 36.7678C13.7989 37.2366 13.163 37.5 12.5 37.5ZM12.5 27.5H10C9.33696 27.5 8.70107 27.2366 8.23223 26.7678C7.76339 26.2989 7.5 25.663 7.5 25C7.5 24.337 7.76339 23.7011 8.23223 23.2322C8.70107 22.7634 9.33696 22.5 10 22.5H12.5C13.163 22.5 13.7989 22.7634 14.2678 23.2322C14.7366 23.7011 15 24.337 15 25C15 25.663 14.7366 26.2989 14.2678 26.7678C13.7989 27.2366 13.163 27.5 12.5 27.5ZM12.5 17.5H10C9.33696 17.5 8.70107 17.2366 8.23223 16.7678C7.76339 16.2989 7.5 15.663 7.5 15C7.5 14.337 7.76339 13.7011 8.23223 13.2322C8.70107 12.7634 9.33696 12.5 10 12.5H12.5C13.163 12.5 13.7989 12.7634 14.2678 13.2322C14.7366 13.7011 15 14.337 15 15C15 15.663 14.7366 16.2989 14.2678 16.7678C13.7989 17.2366 13.163 17.5 12.5 17.5ZM25 47.5H22.5C21.837 47.5 21.2011 47.2366 20.7322 46.7678C20.2634 46.2989 20 45.663 20 45C20 44.337 20.2634 43.7011 20.7322 43.2322C21.2011 42.7634 21.837 42.5 22.5 42.5H25C25.663 42.5 26.2989 42.7634 26.7678 43.2322C27.2366 43.7011 27.5 44.337 27.5 45C27.5 45.663 27.2366 46.2989 26.7678 46.7678C26.2989 47.2366 25.663 47.5 25 47.5ZM25 37.5H22.5C21.837 37.5 21.2011 37.2366 20.7322 36.7678C20.2634 36.2989 20 35.663 20 35C20 34.337 20.2634 33.7011 20.7322 33.2322C21.2011 32.7634 21.837 32.5 22.5 32.5H25C25.663 32.5 26.2989 32.7634 26.7678 33.2322C27.2366 33.7011 27.5 34.337 27.5 35C27.5 35.663 27.2366 36.2989 26.7678 36.7678C26.2989 37.2366 25.663 37.5 25 37.5ZM25 27.5H22.5C21.837 27.5 21.2011 27.2366 20.7322 26.7678C20.2634 26.2989 20 25.663 20 25C20 24.337 20.2634 23.7011 20.7322 23.2322C21.2011 22.7634 21.837 22.5 22.5 22.5H25C25.663 22.5 26.2989 22.7634 26.7678 23.2322C27.2366 23.7011 27.5 24.337 27.5 25C27.5 25.663 27.2366 26.2989 26.7678 26.7678C26.2989 27.2366 25.663 27.5 25 27.5ZM25 17.5H22.5C21.837 17.5 21.2011 17.2366 20.7322 16.7678C20.2634 16.2989 20 15.663 20 15C20 14.337 20.2634 13.7011 20.7322 13.2322C21.2011 12.7634 21.837 12.5 22.5 12.5H25C25.663 12.5 26.2989 12.7634 26.7678 13.2322C27.2366 13.7011 27.5 14.337 27.5 15C27.5 15.663 27.2366 16.2989 26.7678 16.7678C26.2989 17.2366 25.663 17.5 25 17.5ZM47.5 12.5H40V60H47.5C50.814 59.996 53.9911 58.6778 56.3345 56.3345C58.6778 53.9911 59.996 50.814 60 47.5V25C59.996 21.686 58.6778 18.5089 56.3345 16.1656C53.9911 13.8222 50.814 12.504 47.5 12.5ZM50 47.5C49.5055 47.5 49.0222 47.3534 48.6111 47.0787C48.2 46.804 47.8795 46.4135 47.6903 45.9567C47.5011 45.4999 47.4516 44.9972 47.548 44.5123C47.6445 44.0273 47.8826 43.5819 48.2322 43.2322C48.5819 42.8826 49.0273 42.6445 49.5123 42.548C49.9972 42.4516 50.4999 42.5011 50.9567 42.6903C51.4135 42.8795 51.804 43.2 52.0787 43.6111C52.3534 44.0222 52.5 44.5055 52.5 45C52.5 45.663 52.2366 46.2989 51.7678 46.7678C51.2989 47.2366 50.663 47.5 50 47.5ZM50 37.5C49.5055 37.5 49.0222 37.3534 48.6111 37.0787C48.2 36.804 47.8795 36.4135 47.6903 35.9567C47.5011 35.4999 47.4516 34.9972 47.548 34.5123C47.6445 34.0273 47.8826 33.5819 48.2322 33.2322C48.5819 32.8826 49.0273 32.6445 49.5123 32.548C49.9972 32.4516 50.4999 32.5011 50.9567 32.6903C51.4135 32.8795 51.804 33.2 52.0787 33.6111C52.3534 34.0222 52.5 34.5055 52.5 35C52.5 35.663 52.2366 36.2989 51.7678 36.7678C51.2989 37.2366 50.663 37.5 50 37.5ZM50 27.5C49.5055 27.5 49.0222 27.3534 48.6111 27.0787C48.2 26.804 47.8795 26.4135 47.6903 25.9567C47.5011 25.4999 47.4516 24.9972 47.548 24.5123C47.6445 24.0273 47.8826 23.5819 48.2322 23.2322C48.5819 22.8826 49.0273 22.6445 49.5123 22.548C49.9972 22.4516 50.4999 22.5011 50.9567 22.6903C51.4135 22.8795 51.804 23.2 52.0787 23.6111C52.3534 24.0222 52.5 24.5055 52.5 25C52.5 25.663 52.2366 26.2989 51.7678 26.7678C51.2989 27.2366 50.663 27.5 50 27.5Z" fill="black"/>
</svg>
