<svg width="60" height="60" viewBox="0 0 60 60" fill="none" xmlns="http://www.w3.org/2000/svg">
<g clip-path="url(#clip0_62_735)">
<path d="M59.2175 56.8475C58.975 57.0694 58.6912 57.2413 58.3822 57.3533C58.0732 57.4654 57.7452 57.5154 57.4168 57.5005C57.0885 57.4857 56.7663 57.4062 56.4687 57.2667C56.1711 57.1272 55.904 56.9304 55.6825 56.6875C52.0235 52.6893 49.996 47.4648 50 42.045V40H45C45 41.3261 44.4732 42.5979 43.5355 43.5355C42.5979 44.4732 41.3261 45 40 45H5.00001C3.67393 45 2.40216 44.4732 1.46448 43.5355C0.526794 42.5979 9.66806e-06 41.3261 9.66806e-06 40V37.5C-0.0509124 36.1731 0.172911 34.85 0.657438 33.6137C1.14197 32.3774 1.87674 31.2546 2.81568 30.3157C3.75461 29.3767 4.87745 28.642 6.11375 28.1574C7.35005 27.6729 8.67313 27.4491 10 27.5H35C37.2163 27.5026 39.3692 28.2402 41.1213 29.5974C42.8735 30.9546 44.1259 32.8547 44.6825 35H50V32.955C49.9952 27.5363 52.0219 22.3126 55.68 18.315C55.8994 18.0655 56.1663 17.8623 56.4651 17.7171C56.7639 17.572 57.0886 17.4878 57.4203 17.4696C57.752 17.4514 58.084 17.4995 58.3969 17.611C58.7098 17.7226 58.9973 17.8954 59.2427 18.1193C59.4881 18.3432 59.6864 18.6138 59.826 18.9153C59.9656 19.2167 60.0437 19.5429 60.0558 19.8749C60.0679 20.2069 60.0137 20.5379 59.8963 20.8487C59.779 21.1595 59.601 21.4438 59.3725 21.685C56.5567 24.7625 54.9966 28.7837 55 32.955V42.045C54.9963 46.2169 56.5574 50.2384 59.375 53.315C59.5967 53.5573 59.7684 53.8408 59.8805 54.1495C59.9925 54.4581 60.0426 54.7858 60.028 55.1139C60.0134 55.4419 59.9343 55.7639 59.7952 56.0613C59.6561 56.3588 59.4598 56.6259 59.2175 56.8475ZM37.1725 22.6575L28.5925 10.3525C27.4411 8.70049 25.9076 7.3511 24.1225 6.41918C22.3375 5.48726 20.3537 5.00039 18.34 5H16.25C14.5924 5 13.0027 5.65848 11.8306 6.83058C10.6585 8.00269 10 9.5924 10 11.25V22.5H35C35.727 22.5005 36.453 22.5531 37.1725 22.6575ZM5.14501 50C3.67751 59.885 18.825 59.88 17.355 50H5.14501ZM27.645 50C26.1775 59.885 41.325 59.88 39.855 50H27.645Z" fill="black"/>
</g>
<defs>
<clipPath id="clip0_62_735">
<rect width="60" height="60" fill="white"/>
</clipPath>
</defs>
</svg>
