<svg width="41" height="40" viewBox="0 0 41 40" fill="none" xmlns="http://www.w3.org/2000/svg">
<path d="M12.2776 22.0343C11.3296 20.3763 10.8718 19.0226 10.5958 17.6503C10.1876 15.6207 11.1218 13.6381 12.6694 12.3731C13.3234 11.8384 14.0732 12.0211 14.46 12.717L15.3332 14.2881C16.0253 15.5334 16.3713 16.1561 16.3027 16.8162C16.2341 17.4763 15.7674 18.014 14.834 19.0893L12.2776 22.0343ZM12.2776 22.0343C14.1965 25.39 17.2078 28.4118 20.5576 30.3386M20.5576 30.3386C22.2107 31.2894 23.5605 31.7485 24.9288 32.0253C26.9524 32.4347 28.9292 31.4978 30.1905 29.9457C30.7236 29.2897 30.5415 28.5377 29.8476 28.1498L28.2811 27.2741C27.0394 26.5799 26.4186 26.2329 25.7604 26.3017C25.1022 26.3705 24.5661 26.8386 23.494 27.7747L20.5576 30.3386Z" stroke="#FFC817" stroke-width="1.5" stroke-linejoin="round"/>
<circle cx="20.5" cy="20" r="19.5" stroke="#FFC817"/>
</svg>
