<svg width="60" height="60" viewBox="0 0 60 60" fill="none" xmlns="http://www.w3.org/2000/svg">
<path d="M57.5001 12.5H51.0351L56.7676 6.7675C57.223 6.29599 57.475 5.66449 57.4693 5.009C57.4636 4.3535 57.2007 3.72647 56.7371 3.26295C56.2736 2.79943 55.6466 2.53651 54.9911 2.53082C54.3356 2.52512 53.7041 2.7771 53.2326 3.2325L47.5001 8.965V2.5C47.5001 1.83696 47.2367 1.20107 46.7679 0.732233C46.299 0.263392 45.6631 0 45.0001 0C44.337 0 43.7012 0.263392 43.2323 0.732233C42.7635 1.20107 42.5001 1.83696 42.5001 2.5V13.64C40.4537 11.4615 38.0382 9.66214 35.3651 8.325C33.5084 7.50516 31.436 7.30931 29.4586 7.7668C27.4813 8.2243 25.7055 9.31049 24.3976 10.8625L31.7676 18.2325C32.223 18.704 32.475 19.3355 32.4693 19.991C32.4636 20.6465 32.2007 21.2735 31.7371 21.737C31.2736 22.2006 30.6466 22.4635 29.9911 22.4692C29.3356 22.4749 28.7041 22.2229 28.2326 21.7675L21.3026 14.84C18.4601 19.0125 14.6501 25.5 10.8351 32.3L16.7676 38.2325C17.223 38.704 17.475 39.3355 17.4693 39.991C17.4636 40.6465 17.2007 41.2735 16.7371 41.737C16.2736 42.2006 15.6466 42.4635 14.9911 42.4692C14.3356 42.4749 13.7041 42.2229 13.2326 41.7675L8.30509 36.84C5.53759 41.855 2.89009 46.78 0.75009 50.7975C0.142565 51.9799 -0.0739347 53.3246 0.131785 54.6379C0.337504 55.9512 0.954821 57.1653 1.8948 58.1053C2.83477 59.0453 4.04888 59.6626 5.36219 59.8683C6.6755 60.074 8.02021 59.8575 9.20259 59.25C16.2651 55.5 26.1076 50.1675 34.3401 45.375L28.2326 39.2675C27.7772 38.796 27.5252 38.1645 27.5309 37.509C27.5366 36.8535 27.7995 36.2265 28.263 35.763C28.7266 35.2994 29.3536 35.0365 30.0091 35.0308C30.6646 35.0251 31.2961 35.2771 31.7676 35.7325L38.7801 42.75C42.4148 40.7203 45.8544 38.3595 49.0551 35.6975C50.6366 34.3919 51.7485 32.6056 52.2219 30.6102C52.6952 28.6148 52.5041 26.5194 51.6776 24.6425C50.3392 21.9673 48.5391 19.5494 46.3601 17.5H57.5001C58.1631 17.5 58.799 17.2366 59.2679 16.7678C59.7367 16.2989 60.0001 15.663 60.0001 15C60.0001 14.337 59.7367 13.7011 59.2679 13.2322C58.799 12.7634 58.1631 12.5 57.5001 12.5Z" fill="black"/>
</svg>
