<svg width="43" height="43" viewBox="0 0 43 43" fill="none" xmlns="http://www.w3.org/2000/svg">
<rect width="43" height="43" fill="#F5F5F5"/>
<g id="Dashboard" clip-path="url(#clip0_0_1)">
<rect width="1922" height="1140" transform="translate(-1773 -446)" fill="#fabb18"/>
<rect id="Rectangle 69" x="-1453" y="-126" width="1580" height="800" rx="15" fill="white"/>
<g id="Group 39620">
<g id="Group 39619">
<g id="Group 39617">
<g id="Group 39337">
<rect id="Rectangle 34624131" width="43" height="43" rx="10" fill="#382460" fill-opacity="0.1"/>
<g id="Group 24">
<path id="Vector" d="M34 13.9763C29.375 13.5638 24.7222 13.3513 20.0833 13.3513C17.3333 13.3513 14.5833 13.4763 11.8333 13.7263L9 13.9763" stroke="#020005" stroke-width="2" stroke-linecap="round" stroke-linejoin="round"/>
<path id="Vector_2" d="M16.6387 12.7125L16.9442 11.075C17.1665 9.8875 17.3331 9 19.6803 9H23.3192C25.6665 9 25.847 9.9375 26.0553 11.0875L26.3609 12.7125" stroke="#020005" stroke-width="2" stroke-linecap="round" stroke-linejoin="round"/>
<path id="Vector_3" d="M31.0141 17.9258L30.1113 30.5133C29.9586 32.4758 29.8335 34.0008 25.9585 34.0008H17.0419C13.1669 34.0008 13.0419 32.4758 12.8891 30.5133L11.9863 17.9258" stroke="#020005" stroke-width="2" stroke-linecap="round" stroke-linejoin="round"/>
<path id="Vector_4" d="M19.1797 27.125H23.8047" stroke="#020005" stroke-width="2" stroke-linecap="round" stroke-linejoin="round"/>
<path id="Vector_5" d="M18.0273 22.125H24.9718" stroke="#020005" stroke-width="2" stroke-linecap="round" stroke-linejoin="round"/>
</g>
</g>
</g>
</g>
</g>
</g>
<defs>
<clipPath id="clip0_0_1">
<rect width="1922" height="1140" fill="white" transform="translate(-1773 -446)"/>
</clipPath>
</defs>
</svg>
