<svg width="28" height="28" viewBox="0 0 28 28" fill="none" xmlns="http://www.w3.org/2000/svg">
<path d="M14 12.6313H14.0123" stroke="#FFC817" stroke-width="2" stroke-linecap="round" stroke-linejoin="round"/>
<path d="M19.4737 5.78947L19.3529 5.36655C18.7508 3.25912 18.4497 2.2054 17.733 1.6027C17.0162 1 16.0642 1 14.1601 1H13.84C11.9359 1 10.9839 1 10.2671 1.6027C9.55039 2.2054 9.24933 3.25912 8.6472 5.36655L8.52637 5.78947" stroke="#FFC817" stroke-width="1.5"/>
<path d="M1.0985 8.83245C1.01668 8.1574 0.97576 7.81987 1.0151 7.54377C1.12968 6.73968 1.69355 6.08103 2.45308 5.86405C2.71388 5.78955 3.04375 5.78955 3.70348 5.78955H24.2965C24.9563 5.78955 25.2861 5.78955 25.5469 5.86405C26.3065 6.08103 26.8703 6.73968 26.9849 7.54377C27.0242 7.81987 26.9833 8.1574 26.9015 8.83245C26.6835 10.6307 26.5745 11.5298 26.3075 12.2728C25.5344 14.4234 23.7678 16.0316 21.6025 16.5558C20.8543 16.7369 19.9756 16.7369 18.2183 16.7369H9.78175C8.02435 16.7369 7.14565 16.7369 6.39755 16.5558C4.23218 16.0316 2.46558 14.4234 1.69255 12.2728C1.42547 11.5298 1.31648 10.6307 1.0985 8.83245Z" stroke="white" stroke-width="1.5"/>
<path d="M2.36841 14L2.36841 18.1326C2.36841 22.3127 2.36841 24.4028 3.88255 25.7014C5.39668 27 7.83365 27 12.7076 27H15.2924C20.1663 27 22.6033 27 24.1174 25.7014C25.6316 24.4028 25.6316 22.3127 25.6316 18.1326V14" stroke="white" stroke-width="1.5" stroke-linecap="round" stroke-linejoin="round"/>
</svg>
