<svg width="28" height="28" viewBox="0 0 28 28" fill="none" xmlns="http://www.w3.org/2000/svg">
<path d="M10.0785 1C6.42996 1.08313 4.29885 1.43045 2.84277 2.88148C1.5684 4.15143 1.1424 5.93667 1 8.8M17.9215 1C21.57 1.08313 23.7011 1.43045 25.1572 2.88148C26.4316 4.15143 26.8576 5.93667 27 8.8M17.9215 27C21.57 26.9169 23.7011 26.5696 25.1572 25.1185C26.4316 23.8486 26.8576 22.0633 27 19.2M10.0785 27C6.42996 26.9169 4.29885 26.5696 2.84277 25.1185C1.5684 23.8486 1.1424 22.0633 1 19.2" stroke="white" stroke-width="1.5" stroke-linecap="round" stroke-linejoin="round"/>
<path d="M17.4143 10.5788C17.4143 12.4682 15.8804 13.9998 13.9883 13.9998C12.0963 13.9998 10.5624 12.4682 10.5624 10.5788C10.5624 8.68937 12.0963 7.15771 13.9883 7.15771C15.8804 7.15771 17.4143 8.68937 17.4143 10.5788Z" fill="#FFC817"/>
<path d="M7.84204 20.8419C11.0328 17.5 16.9328 17.3426 20.1578 20.8419M17.4143 10.5788C17.4143 12.4682 15.8804 13.9998 13.9883 13.9998C12.0963 13.9998 10.5624 12.4682 10.5624 10.5788C10.5624 8.68937 12.0963 7.15771 13.9883 7.15771C15.8804 7.15771 17.4143 8.68937 17.4143 10.5788Z" stroke="#FFC817" stroke-width="1.5" stroke-linecap="round"/>
</svg>
