<svg width="36" height="26" viewBox="0 0 36 26" fill="none" xmlns="http://www.w3.org/2000/svg">
<path d="M3.16467 14.5674C2.30864 15.0308 0.0641831 15.9769 1.43121 17.1609C2.09899 17.7392 2.84272 18.1529 3.77778 18.1529H9.11341C10.0485 18.1529 10.7922 17.7392 11.46 17.1609C12.827 15.9769 10.5826 15.0308 9.72652 14.5674C7.71915 13.4808 5.17204 13.4808 3.16467 14.5674Z" stroke="white" stroke-width="1.5"/>
<path d="M9.16839 8.80201C9.16839 10.3209 7.94936 11.5523 6.4456 11.5523C4.94184 11.5523 3.7228 10.3209 3.7228 8.80201C3.7228 7.28309 4.94184 6.05176 6.4456 6.05176C7.94936 6.05176 9.16839 7.28309 9.16839 8.80201Z" stroke="white" stroke-width="1.5"/>
<path d="M13.1013 20.8662C15.9398 23.7046 20.5312 23.7046 23.3696 20.8662L21.1693 20.1328" stroke="#FFC817" stroke-width="1.5" stroke-linecap="round" stroke-linejoin="round"/>
<path d="M23.3696 5.13428C20.5312 2.29588 15.9398 2.29588 13.1013 5.13428L15.3017 5.86771" stroke="#FFC817" stroke-width="1.5" stroke-linecap="round" stroke-linejoin="round"/>
<path d="M26.1571 14.5723C25.3011 15.0357 23.0566 15.9818 24.4236 17.1658C25.0914 17.7441 25.8352 18.1577 26.7702 18.1577H32.1058C33.0409 18.1577 33.7846 17.7441 34.4524 17.1658C35.8194 15.9818 33.575 15.0357 32.719 14.5723C30.7116 13.4857 28.1645 13.4857 26.1571 14.5723Z" stroke="white" stroke-width="1.5"/>
<path d="M32.1608 8.80689C32.1608 10.3258 30.9418 11.5571 29.438 11.5571C27.9343 11.5571 26.7152 10.3258 26.7152 8.80689C26.7152 7.28797 27.9343 6.05664 29.438 6.05664C30.9418 6.05664 32.1608 7.28797 32.1608 8.80689Z" stroke="white" stroke-width="1.5"/>
</svg>
