<svg width="28" height="27" viewBox="0 0 28 27" fill="none" xmlns="http://www.w3.org/2000/svg">
<path d="M15.4445 20.4998V21.222C15.4445 23.0768 15.4445 24.0042 15.1209 24.5278C14.6895 25.2259 13.9006 25.6203 13.0833 25.5466C12.4702 25.4913 11.7283 24.9349 10.2445 23.822L8.51117 22.522C7.09927 21.4631 6.77783 20.8202 6.77783 19.0553V16.8887" stroke="#FFC817" stroke-width="1.5" stroke-linecap="round" stroke-linejoin="round"/>
<path d="M7.5 16.1667V7.5" stroke="#FFC817" stroke-width="1.5" stroke-linecap="round" stroke-linejoin="round"/>
<path d="M18.2268 2.31593L8.61731 6.92875C7.87773 7.28376 7.08751 7.37269 6.28197 7.19223C5.75478 7.07414 5.49115 7.01508 5.27888 6.99084C2.64295 6.68983 1 8.77606 1 11.1751V12.4916C1 14.8906 2.64296 16.9768 5.27888 16.6758C5.49115 16.6516 5.75479 16.5925 6.28197 16.4744C7.08751 16.294 7.87774 16.3829 8.61731 16.7379L18.2268 21.3507C20.4327 22.4096 21.5357 22.9391 22.7654 22.5264C23.9952 22.1137 24.4173 21.2282 25.2614 19.4572C27.5795 14.5939 27.5795 9.07278 25.2614 4.2095C24.4173 2.43846 23.9952 1.55294 22.7654 1.14026C21.5357 0.727573 20.4327 1.25703 18.2268 2.31593Z" stroke="white" stroke-width="1.5" stroke-linecap="round" stroke-linejoin="round"/>
</svg>
