<svg width="28" height="27" viewBox="0 0 28 27" fill="none" xmlns="http://www.w3.org/2000/svg">
<path d="M27 12.05C27 11.4112 26.9932 10.7724 26.9795 10.1317C26.8945 6.14652 26.852 4.15392 25.3816 2.67786C23.9111 1.2018 21.8646 1.15038 17.7715 1.04754C15.2489 0.984157 12.7511 0.984153 10.2285 1.04753C6.13543 1.15036 4.08891 1.20178 2.61844 2.67784C1.14797 4.1539 1.10548 6.1465 1.02049 10.1317C0.993168 11.4131 0.993169 12.6869 1.0205 13.9683C1.10548 17.9535 1.14798 19.9461 2.61844 21.4222C4.08891 22.8982 6.13543 22.9496 10.2285 23.0525C11.4898 23.0842 12.7449 23.1 14 23.1" stroke="white" stroke-width="1.5" stroke-linecap="round" stroke-linejoin="round"/>
<path d="M7.5 7.5L11.3246 9.76126C13.5544 11.0796 14.4456 11.0796 16.6754 9.76126L20.5 7.5" stroke="#FFC817" stroke-width="1.5" stroke-linecap="round" stroke-linejoin="round"/>
<path d="M26.2499 25.6998C26.2499 26.114 26.5857 26.4498 26.9999 26.4498C27.4141 26.4498 27.7499 26.114 27.7499 25.6998H26.2499ZM20.6272 22.3376C20.9242 22.6263 21.399 22.6196 21.6877 22.3225C21.9764 22.0255 21.9697 21.5507 21.6726 21.262L20.6272 22.3376ZM21.6726 15.8376C21.9697 15.5489 21.9764 15.0741 21.6877 14.7771C21.399 14.48 20.9242 14.4733 20.6272 14.762L21.6726 15.8376ZM17.8999 18.5498V19.2998H21.7999V18.5498V17.7998H17.8999V18.5498ZM26.9999 23.7498H26.2499V25.6998H26.9999H27.7499V23.7498H26.9999ZM21.7999 18.5498V19.2998C24.2576 19.2998 26.2499 21.2921 26.2499 23.7498H26.9999H27.7499C27.7499 20.4637 25.086 17.7998 21.7999 17.7998V18.5498ZM17.8999 18.5498L17.1499 18.5498C17.1499 18.8343 17.2483 19.0859 17.3513 19.2785C17.4576 19.477 17.5975 19.6657 17.7443 19.8381C18.0374 20.1822 18.4187 20.5311 18.7935 20.8487C19.1716 21.1691 19.5697 21.4796 19.9015 21.7402C20.2503 22.0142 20.498 22.212 20.6272 22.3376L21.1499 21.7998L21.6726 21.262C21.4731 21.0681 21.1502 20.8137 20.828 20.5606C20.4888 20.2942 20.1155 20.0028 19.7632 19.7043C19.4077 19.4031 19.0998 19.1163 18.8862 18.8655C18.7797 18.7404 18.712 18.642 18.6739 18.5707C18.6326 18.4935 18.6499 18.4928 18.6499 18.5498H17.8999ZM21.1499 15.2998L20.6272 14.762C20.498 14.8876 20.2503 15.0854 19.9015 15.3594C19.5697 15.62 19.1716 15.9305 18.7935 16.2509C18.4187 16.5685 18.0374 16.9174 17.7443 17.2615C17.5975 17.4339 17.4576 17.6226 17.3513 17.8211C17.2483 18.0137 17.1499 18.2653 17.1499 18.5498H17.8999L18.6499 18.5498C18.6499 18.6068 18.6326 18.6061 18.6739 18.5289C18.712 18.4577 18.7797 18.3592 18.8862 18.2341C19.0998 17.9834 19.4077 17.6965 19.7632 17.3953C20.1155 17.0968 20.4888 16.8054 20.828 16.539C21.1502 16.286 21.4731 16.0315 21.6726 15.8376L21.1499 15.2998Z" fill="#FFC817"/>
</svg>
