<svg width="60" height="60" viewBox="0 0 60 60" fill="none" xmlns="http://www.w3.org/2000/svg">
<g clip-path="url(#clip0_62_740)">
<path d="M53.75 22.5H52.5V21.25C52.5 17.805 49.695 15 46.25 15H40V7.5H47.5C48.88 7.5 50 6.38 50 5C50 3.62 48.88 2.5 47.5 2.5H27.5C26.12 2.5 25 3.62 25 5C25 6.38 26.12 7.5 27.5 7.5H35V15H28.5925C26.36 15 24.26 15.985 22.8325 17.7L18.83 22.5H18.75C15.305 22.5 12.5 25.305 12.5 28.75V32.5H5V25C5 23.62 3.88 22.5 2.5 22.5C1.12 22.5 0 23.62 0 25V45C0 46.38 1.12 47.5 2.5 47.5C3.88 47.5 5 46.38 5 45V37.5H12.5V42.9275C12.5 44.93 13.28 46.815 14.6975 48.2325L19.2675 52.8025C20.6825 54.22 22.5675 55 24.5725 55H46.25C49.27 55 51.7925 52.85 52.375 50H53.75C57.195 50 60 47.195 60 43.75V28.75C60 25.305 57.195 22.5 53.75 22.5Z" fill="black"/>
</g>
<defs>
<clipPath id="clip0_62_740">
<rect width="60" height="60" fill="white"/>
</clipPath>
</defs>
</svg>
