<svg width="28" height="30" viewBox="0 0 28 30" fill="none" xmlns="http://www.w3.org/2000/svg">
<path d="M8.75535 13.2032L9.14265 12.9126C12.8463 10.1343 18.8512 10.1343 22.5549 12.9126C26.2586 15.691 26.2586 20.1956 22.5549 22.974L17.19 26.9986C13.4863 29.7769 7.48144 29.7769 3.77776 26.9986C0.0740795 24.2202 0.0740795 19.7156 3.77776 16.9372L4.6469 16.2852" stroke="#141B34" stroke-width="1.5" stroke-linecap="round"/>
<path d="M23.5549 13.7971L24.424 13.1452C28.1277 10.3668 28.1277 5.86215 24.424 3.08378C20.7203 0.305407 14.7155 0.305407 11.0118 3.08378L5.6469 7.10833C1.94322 9.8867 1.94322 14.3913 5.6469 17.1697C9.35058 19.9481 15.3554 19.9481 19.0591 17.1697L19.4464 16.8792" stroke="#141B34" stroke-width="1.5" stroke-linecap="round"/>
</svg>
