<svg width="22" height="20" viewBox="0 0 22 20" fill="none" xmlns="http://www.w3.org/2000/svg">
<path d="M1 4.43585L7.91302 8.36433C10.4616 9.81262 11.5384 9.81262 14.087 8.36433L21 4.43585" stroke="white" stroke-width="2" stroke-linejoin="round"/>
<path d="M1.01577 11.9334C1.08114 15.0079 1.11383 16.5452 2.24496 17.684C3.37608 18.8228 4.95033 18.8624 8.09883 18.9418C10.0393 18.9907 11.9607 18.9907 13.9012 18.9418C17.0497 18.8624 18.6239 18.8228 19.755 17.684C20.8862 16.5452 20.9189 15.0079 20.9842 11.9334C21.0053 10.9448 21.0053 9.96208 20.9842 8.9735C20.9189 5.89896 20.8862 4.36169 19.755 3.22292C18.6239 2.08415 17.0497 2.04448 13.9012 1.96514C11.9607 1.91624 10.0393 1.91624 8.09882 1.96514C4.95033 2.04447 3.37608 2.08414 2.24495 3.22291C1.11382 4.36168 1.08114 5.89895 1.01576 8.97349C0.994745 9.96207 0.994745 10.9448 1.01577 11.9334Z" stroke="white" stroke-width="2" stroke-linejoin="round"/>
</svg>
