<svg width="60" height="60" viewBox="0 0 60 60" fill="none" xmlns="http://www.w3.org/2000/svg">
<path d="M0 27.5V15C0 6.73 6.73 0 15 0C23.27 0 30 6.73 30 15V27.5H0ZM30.645 53.32C28.6775 50.6325 27.5 47.33 27.5 43.75C27.5 34.79 34.79 27.5 43.75 27.5C47.33 27.5 50.63 28.6775 53.32 30.645L30.6475 53.3175L30.645 53.32ZM34.18 56.855C36.8675 58.8225 40.17 60 43.75 60C52.71 60 60 52.71 60 43.75C60 40.17 58.8225 36.87 56.855 34.18L34.1825 56.8525L34.18 56.855ZM22.5 43.75C22.5 39.6125 23.7 35.765 25.745 32.5H0V45C0 53.27 6.73 60 15 60C19.2975 60 23.17 58.1725 25.9075 55.265C23.76 51.945 22.5 47.9975 22.5 43.75Z" fill="black"/>
</svg>
