<svg width="22" height="22" viewBox="0 0 22 22" fill="none" xmlns="http://www.w3.org/2000/svg">
<path d="M2.77762 10.9716C1.8296 9.31369 1.37185 7.9599 1.09584 6.58761C0.687622 4.55803 1.62181 2.57545 3.16938 1.31041C3.82345 0.775756 4.57323 0.958427 4.96 1.65435L5.83318 3.22546C6.52529 4.47076 6.87134 5.09342 6.8027 5.75355C6.73407 6.41368 6.26737 6.95133 5.33397 8.02662L2.77762 10.9716ZM2.77762 10.9716C4.69651 14.3273 7.70784 17.3492 11.0576 19.2759M11.0576 19.2759C12.7107 20.2268 14.0605 20.6859 15.4288 20.9627C17.4524 21.3721 19.4292 20.4352 20.6905 18.883C21.2236 18.2271 21.0415 17.4751 20.3476 17.0872L18.7811 16.2114C17.5394 15.5173 16.9186 15.1702 16.2604 15.239C15.6022 15.3079 15.0661 15.776 13.994 16.7121L11.0576 19.2759Z" stroke="#FABB18" stroke-width="1.5" stroke-linejoin="round"/>
</svg>
