<svg width="60" height="60" viewBox="0 0 60 60" fill="none" xmlns="http://www.w3.org/2000/svg">
<path d="M55 17.5H42.5V2.5C42.5 1.12 41.3825 0 40 0C38.6175 0 37.5 1.12 37.5 2.5V17.5H22.5V2.5C22.5 1.12 21.3825 0 20 0C18.6175 0 17.5 1.12 17.5 2.5V17.5H5C3.6175 17.5 2.5 18.62 2.5 20C2.5 21.38 3.6175 22.5 5 22.5H7.5V30C7.5 41.56 16.2675 51.105 27.5 52.3525V57.5C27.5 58.88 28.6175 60 30 60C31.3825 60 32.5 58.88 32.5 57.5V52.3525C43.7325 51.1025 52.5 41.56 52.5 30V22.5H55C56.3825 22.5 57.5 21.38 57.5 20C57.5 18.62 56.3825 17.5 55 17.5Z" fill="white"/>
</svg>
