<svg width="22" height="22" viewBox="0 0 22 22" fill="none" xmlns="http://www.w3.org/2000/svg">
<path d="M11 21.0588C16.5228 21.0588 21 16.5685 21 11.0294C21 5.49034 16.5228 1.00003 11 1.00003C5.47715 1.00003 1 5.49034 1 11.0294C1 12.4123 1.27907 13.7299 1.78382 14.9285C2.06278 15.5909 2.20226 15.9221 2.21953 16.1725C2.2368 16.4228 2.16334 16.6981 2.01642 17.2489L1 21.0588L4.79877 20.0394C5.34788 19.892 5.62244 19.8184 5.87202 19.8357C6.12161 19.853 6.45185 19.9929 7.11235 20.2727C8.30745 20.7789 9.62113 21.0588 11 21.0588Z" stroke="white" stroke-width="1.5" stroke-linejoin="round"/>
<path d="M6.88881 10.6676C6.4148 9.84109 6.18592 9.16618 6.04792 8.48205C5.84381 7.47023 6.31091 6.48184 7.08469 5.85118C7.41172 5.58463 7.78662 5.6757 7.98 6.02264L8.41659 6.8059C8.76265 7.42672 8.93567 7.73714 8.90135 8.06624C8.86703 8.39534 8.63368 8.66337 8.16699 9.19944L6.88881 10.6676Z" fill="white"/>
<path d="M11.0288 14.8076C11.8553 15.2816 12.5303 15.5105 13.2144 15.6485C14.2262 15.8526 15.2146 15.3855 15.8453 14.6118C16.1118 14.2847 16.0207 13.9098 15.6738 13.7164L14.8905 13.2799C14.2697 12.9338 13.9593 12.7608 13.6302 12.7951C13.3011 12.8294 13.0331 13.0628 12.497 13.5295L11.0288 14.8076Z" fill="white"/>
<path d="M6.88881 10.6676C6.4148 9.84109 6.18592 9.16618 6.04792 8.48205C5.84381 7.47023 6.31091 6.48184 7.08469 5.85118C7.41172 5.58463 7.78662 5.6757 7.98 6.02264L8.41659 6.8059C8.76264 7.42672 8.93567 7.73714 8.90135 8.06624C8.86703 8.39534 8.63368 8.66337 8.16699 9.19944L6.88881 10.6676ZM6.88881 10.6676C7.84825 12.3406 9.35392 13.8471 11.0288 14.8076M11.0288 14.8076C11.8553 15.2816 12.5303 15.5105 13.2144 15.6485C14.2262 15.8526 15.2146 15.3855 15.8453 14.6118C16.1118 14.2847 16.0207 13.9098 15.6738 13.7164L14.8905 13.2799C14.2697 12.9338 13.9593 12.7608 13.6302 12.7951C13.3011 12.8294 13.0331 13.0628 12.497 13.5295L11.0288 14.8076Z" stroke="white" stroke-linejoin="round"/>
</svg>
