<svg width="27" height="27" viewBox="0 0 27 27" fill="none" xmlns="http://www.w3.org/2000/svg">
<path d="M25.6316 18.2383C22.2084 26.3505 11.0771 28.7144 4.69669 22.3933C-1.55965 16.1951 0.377271 4.966 8.60367 1.36865" stroke="white" stroke-width="1.5" stroke-linecap="round"/>
<path d="M21.7768 13.6842C24.3599 13.6842 25.6514 13.6842 26.4855 12.5279C26.5167 12.4847 26.5685 12.4071 26.5965 12.3618C27.3456 11.1487 26.9596 10.2166 26.1874 8.35255C25.4873 6.6622 24.461 5.12632 23.1673 3.83258C21.8736 2.53885 20.3377 1.5126 18.6473 0.812437C16.7833 0.0403104 15.8512 -0.345753 14.6381 0.403368C14.5928 0.431362 14.5152 0.483171 14.472 0.514342C13.3157 1.34844 13.3157 2.63999 13.3157 5.22307V8.11129C13.3157 10.7384 13.3157 12.0519 14.1318 12.8681C14.9479 13.6842 16.2615 13.6842 18.8886 13.6842H21.7768Z" fill="#FFC817"/>
</svg>
