<svg width="26" height="28" viewBox="0 0 26 28" fill="none" xmlns="http://www.w3.org/2000/svg">
<path d="M24.3999 14C24.3999 16.3932 22.4598 18.3333 20.0666 18.3333C19.201 18.3333 18.1807 18.1817 17.3391 18.4072C16.5914 18.6075 16.0074 19.1915 15.8071 19.9392C15.5816 20.7808 15.7332 21.8011 15.7332 22.6667C15.7332 25.0599 13.7931 27 11.3999 27" stroke="#FFC817" stroke-width="1.5" stroke-linecap="round" stroke-linejoin="round"/>
<path d="M11.4 6.2L1 6.2M6.2 1V11.4" stroke="#FFC817" stroke-width="1.5" stroke-linecap="round"/>
<path d="M14 1H14.3546C18.5942 1 20.7139 1 22.186 2.03719C22.6078 2.33436 22.9823 2.68678 23.298 3.08376C24.4 4.46927 24.4 6.46436 24.4 10.4545V13.7636C24.4 17.6158 24.4 19.5418 23.7904 21.0801C22.8104 23.5531 20.7378 25.5038 18.1102 26.4262C16.4757 27 14.4293 27 10.3364 27C7.99762 27 6.82823 27 5.89426 26.6721C4.39278 26.1451 3.20842 25.0304 2.6484 23.6172C2.30005 22.7382 2.30005 21.6376 2.30005 19.4364V14" stroke="white" stroke-width="1.5" stroke-linecap="round" stroke-linejoin="round"/>
</svg>
