<svg width="28" height="28" viewBox="0 0 28 28" fill="none" xmlns="http://www.w3.org/2000/svg">
<path d="M1 14.5202C1 10.5981 1 8.63707 2.23015 7.41863C3.4603 6.2002 5.4402 6.2002 9.4 6.2002H10.8C14.7598 6.2002 16.7397 6.2002 17.9699 7.41863C19.2 8.63707 19.2 10.5981 19.2 14.5202V18.6802C19.2 22.6023 19.2 24.5633 17.9699 25.7818C16.7397 27.0002 14.7598 27.0002 10.8 27.0002H9.4C5.4402 27.0002 3.4603 27.0002 2.23015 25.7818C1 24.5633 1 22.6023 1 18.6802V14.5202Z" stroke="white" stroke-width="1.5" stroke-linejoin="round"/>
<path d="M18.5988 19.2H19.7989C23.1935 19.2 24.8908 19.2 25.9453 18.1339C26.9999 17.0677 26.9999 15.3518 26.9999 11.92V8.28C26.9999 4.84818 26.9999 3.13226 25.9453 2.06613C24.8908 1 23.1935 1 19.7989 1H18.5988C15.2042 1 13.5069 1 12.4524 2.06613C11.5302 2.99844 11.4144 4.42764 11.3999 7.06667" stroke="white" stroke-width="1.5" stroke-linejoin="round"/>
<path d="M6.19995 14H10.1M6.19995 20.5H12.7" stroke="#FFC817" stroke-width="1.5" stroke-linecap="round"/>
<path d="M12.05 2.2998L17.25 6.8498" stroke="white" stroke-width="1.5" stroke-linejoin="round"/>
</svg>
